<?xml version="1.0" standalone="no"?>
<!DOCTYPE svg PUBLIC "-//W3C//DTD SVG 20010904//EN"
 "http://www.w3.org/TR/2001/REC-SVG-20010904/DTD/svg10.dtd">
<svg version="1.0" xmlns="http://www.w3.org/2000/svg"
 width="239.000000pt" height="239.000000pt" viewBox="0 0 239.000000 239.000000"
 preserveAspectRatio="xMidYMid meet">
<metadata>
Created by potrace 1.14, written by Peter Selinger 2001-2017
</metadata>
<g transform="translate(0.000000,239.000000) scale(0.100000,-0.100000)"
fill="#000000" stroke="none">
<path d="M333 1785 c-18 -8 -33 -12 -33 -10 0 3 -26 -9 -57 -26 -114 -61 -175
-141 -213 -284 -56 -208 -20 -399 97 -519 106 -109 205 -147 400 -150 l128 -3
3 -97 3 -96 176 2 177 3 0 213 c0 116 3 212 6 212 3 0 25 -21 47 -47 93 -109
100 -114 151 -112 45 2 50 5 129 88 l83 86 0 -222 0 -223 175 0 174 0 3 97 3
98 133 -1 132 -1 0 357 0 356 168 0 167 0 3 147 3 147 -375 0 -374 0 -54 -62
c-29 -35 -58 -69 -65 -76 -7 -7 -29 -33 -49 -58 -21 -25 -53 -62 -72 -82 -18
-20 -68 -74 -110 -119 l-75 -82 -21 23 c-51 58 -105 118 -151 171 -27 32 -61
70 -75 85 -14 15 -61 66 -104 114 l-79 87 -211 -1 c-154 -1 -220 -5 -243 -15z
m322 -485 l0 -215 -58 -3 c-83 -4 -163 14 -199 47 -29 26 -30 29 -33 132 -3
119 8 193 36 222 22 24 68 33 174 32 l80 0 0 -215z"/>
</g>
</svg>
